<?xml version="1.0" encoding="UTF-8"?>
<svg width="93px" height="94px" viewBox="0 0 93 94" version="1.1" xmlns="http://www.w3.org/2000/svg" xmlns:xlink="http://www.w3.org/1999/xlink">
    <!-- Generator: sketchtool 60 (101010) - https://sketch.com -->
    <title>35190FCE-9FDF-4777-A7AD-DEBBA56FC226</title>
    <desc>Created with sketchtool.</desc>
    <g id="Page-1" stroke="none" stroke-width="1" fill="none" fill-rule="evenodd">
        <g id="homepage_spinx" transform="translate(-374.000000, -5603.000000)" fill="#363FB8" fill-rule="nonzero">
            <g id="6" transform="translate(-18.000000, 5463.000000)">
                <g id="icon-umbraco" transform="translate(392.000000, 140.000000)">
                    <path d="M-6.80518177e-06,46.940276 C0.026715,20.98234 20.879216,-0.032696 46.564812,-3.82892176e-05 C72.250409,0.032849 93.034247,21.103792 93.0000423,47.061728 C92.965584,73.019664 72.158858,93.9999998 46.499964,93.9999998 C20.804831,93.986505 -0.013338,72.919418 -6.80518177e-06,46.947987 L-6.80518177e-06,46.940276 Z M45.536372,62.761908 C41.906708,62.867297 38.277287,62.544136 34.72435,61.799213 C32.102854,61.268548 29.901924,59.510542 28.817463,57.081053 C27.759418,54.657475 27.247666,50.919802 27.28221,45.868034 C27.30157,43.228263 27.468145,40.591584 27.781167,37.97012 C28.085659,35.416912 28.390151,33.312962 28.694643,31.658269 L29.015127,30.013109 C29.018966,29.96489 29.018966,29.916446 29.015127,29.868228 C29.013604,29.4099 28.683916,29.017541 28.230229,28.934127 L22.194764,28.000027 L22.064267,28.000027 C21.625057,28.004287 21.244834,28.304248 21.141196,28.728244 C21.037567,29.109509 20.978076,29.397365 20.797683,30.312402 C20.452251,32.077661 20.133686,33.799075 19.778659,36.309708 C19.406477,39.036561 19.17971,41.781056 19.099309,44.531699 C18.966892,46.447845 18.966892,48.370755 19.099309,50.286901 C19.24132,55.370441 20.120253,59.433461 21.736107,62.475959 C23.351961,65.518458 26.08855,67.705651 29.945874,69.037538 C33.803198,70.373239 39.176585,71.027109 46.066034,70.999149 L46.933453,70.999149 C53.830578,71.027109 59.203965,70.373239 63.053613,69.037538 C66.903261,67.701838 69.63985,65.514645 71.26338,62.475959 C72.879234,59.433461 73.758807,55.370441 73.902097,50.286901 C74.032591,48.37069 74.032591,46.44791 73.902097,44.531699 C73.821052,41.781023 73.593645,39.036528 73.220828,36.309708 C72.86772,33.831483 72.547236,32.115788 72.203723,30.312402 C72.011816,29.397365 71.96192,29.113322 71.858291,28.728244 C71.758381,28.301893 71.375896,28.000027 70.93522,28.000027 L70.779775,28.000027 L64.744311,28.934127 C64.28507,29.009947 63.949206,29.405785 63.951736,29.868228 C63.947897,29.916446 63.947897,29.96489 63.951736,30.013109 L64.270301,31.658269 C64.574793,33.318045 64.882483,35.421995 65.193372,37.97012 C65.501939,40.591894 65.665944,43.228468 65.684653,45.868034 C65.735828,50.910906 65.224077,54.645401 64.1494,57.071521 C63.073732,59.497251 60.885345,61.257921 58.273218,61.799213 C54.723094,62.545971 51.096221,62.871055 47.468872,62.767627 L45.536372,62.761908 Z"></path>
                </g>
            </g>
        </g>
    </g>
</svg>