<?xml version="1.0" encoding="UTF-8"?>
<svg width="149px" height="60px" viewBox="0 0 149 60" version="1.1" xmlns="http://www.w3.org/2000/svg" xmlns:xlink="http://www.w3.org/1999/xlink">
    <!-- Generator: sketchtool 60 (101010) - https://sketch.com -->
    <title>28665E04-F3A9-4127-B70D-2F8C7CE6044C</title>
    <desc>Created with sketchtool.</desc>
    <defs>
        <linearGradient x1="51.0862494%" y1="-19.1152693%" x2="51.0862494%" y2="129.703041%" id="linearGradient-1">
            <stop stop-color="#0994DC" offset="0%"></stop>
            <stop stop-color="#66CEF5" offset="35%"></stop>
            <stop stop-color="#66CEF5" offset="35%"></stop>
            <stop stop-color="#127BCA" offset="84.6%"></stop>
            <stop stop-color="#127BCA" offset="84.6%"></stop>
            <stop stop-color="#127BCA" offset="100%"></stop>
        </linearGradient>
        <linearGradient x1="50.2930884%" y1="-19.7394855%" x2="50.2930884%" y2="129.458314%" id="linearGradient-2">
            <stop stop-color="#0E76BC" offset="0%"></stop>
            <stop stop-color="#36AEE8" offset="36%"></stop>
            <stop stop-color="#36AEE8" offset="36%"></stop>
            <stop stop-color="#00ADEF" offset="84.6%"></stop>
            <stop stop-color="#00ADEF" offset="84.6%"></stop>
            <stop stop-color="#00ADEF" offset="100%"></stop>
        </linearGradient>
        <linearGradient x1="49.9090992%" y1="110.667163%" x2="49.9090992%" y2="-6.21499088%" id="linearGradient-3">
            <stop stop-color="#1C63B7" offset="0%"></stop>
            <stop stop-color="#33BDF2" offset="50%"></stop>
            <stop stop-color="#33BDF2" stop-opacity="0.42" offset="100%"></stop>
        </linearGradient>
        <linearGradient x1="49.5946353%" y1="-19.7175508%" x2="49.5946353%" y2="129.485685%" id="linearGradient-4">
            <stop stop-color="#166AB8" offset="0%"></stop>
            <stop stop-color="#36AEE8" offset="40%"></stop>
            <stop stop-color="#36AEE8" offset="40%"></stop>
            <stop stop-color="#0798DD" offset="84.6%"></stop>
            <stop stop-color="#0798DD" offset="84.6%"></stop>
            <stop stop-color="#0798DD" offset="100%"></stop>
        </linearGradient>
        <linearGradient x1="51.0276145%" y1="-19.473406%" x2="51.0276145%" y2="129.733327%" id="linearGradient-5">
            <stop stop-color="#124379" offset="0%"></stop>
            <stop stop-color="#1487CB" offset="39%"></stop>
            <stop stop-color="#1487CB" offset="39%"></stop>
            <stop stop-color="#165197" offset="78%"></stop>
            <stop stop-color="#165197" offset="78%"></stop>
            <stop stop-color="#165197" offset="100%"></stop>
        </linearGradient>
        <linearGradient x1="-5.36766094%" y1="44.6299016%" x2="94.6291631%" y2="44.6299016%" id="linearGradient-6">
            <stop stop-color="#33BDF2" stop-opacity="0.698" offset="0%"></stop>
            <stop stop-color="#1DACD8" offset="100%"></stop>
        </linearGradient>
        <linearGradient x1="50.1140999%" y1="94.4325191%" x2="50.1140999%" y2="-3.3188945%" id="linearGradient-7">
            <stop stop-color="#136AB4" offset="0%"></stop>
            <stop stop-color="#59CAF5" stop-opacity="0.549" offset="60%"></stop>
            <stop stop-color="#59CAF5" stop-opacity="0.235" offset="100%"></stop>
        </linearGradient>
        <linearGradient x1="-1.42449523%" y1="48.3318317%" x2="98.5501707%" y2="48.3318317%" id="linearGradient-8">
            <stop stop-color="#05A1E6" stop-opacity="0.247" offset="0%"></stop>
            <stop stop-color="#05A1E6" offset="100%"></stop>
        </linearGradient>
        <linearGradient x1="50.7865911%" y1="124.18384%" x2="50.7865911%" y2="-9.26131008%" id="linearGradient-9">
            <stop stop-color="#318ED5" offset="0%"></stop>
            <stop stop-color="#38A7E4" offset="100%"></stop>
        </linearGradient>
        <linearGradient x1="49.3115863%" y1="90.971116%" x2="49.3115863%" y2="-77.0848286%" id="linearGradient-10">
            <stop stop-color="#05A1E6" offset="0%"></stop>
            <stop stop-color="#05A1E6" stop-opacity="0.549" offset="100%"></stop>
        </linearGradient>
        <linearGradient x1="50.5859251%" y1="100.222747%" x2="50.5859251%" y2="0.181897593%" id="linearGradient-11">
            <stop stop-color="#1959A6" offset="0%"></stop>
            <stop stop-color="#05A1E6" offset="50%"></stop>
            <stop stop-color="#05A1E6" offset="50%"></stop>
            <stop stop-color="#7EC5EA" offset="91.8%"></stop>
            <stop stop-color="#7EC5EA" offset="100%"></stop>
        </linearGradient>
        <linearGradient x1="55.1691216%" y1="94.4388111%" x2="43.6989587%" y2="5.82068623%" id="linearGradient-12">
            <stop stop-color="#165096" offset="0%"></stop>
            <stop stop-color="#0D82CA" offset="100%"></stop>
        </linearGradient>
        <linearGradient x1="48.7197101%" y1="76.7376233%" x2="48.7197101%" y2="-3.59320639%" id="linearGradient-13">
            <stop stop-color="#05A1E6" offset="0%"></stop>
            <stop stop-color="#0495D6" offset="87.4%"></stop>
            <stop stop-color="#0495D6" offset="100%"></stop>
        </linearGradient>
        <linearGradient x1="56.1416522%" y1="-4.04960918%" x2="44.0317179%" y2="105.717366%" id="linearGradient-14">
            <stop stop-color="#38A7E4" stop-opacity="0.329" offset="0%"></stop>
            <stop stop-color="#0E88D3" offset="96.2%"></stop>
            <stop stop-color="#0E88D3" offset="96.2%"></stop>
            <stop stop-color="#0E88D3" offset="100%"></stop>
        </linearGradient>
        <linearGradient x1="49.2589191%" y1="-0.168432005%" x2="49.2589191%" y2="101.78497%" id="linearGradient-15">
            <stop stop-color="#168CD4" offset="0%"></stop>
            <stop stop-color="#1C87CC" offset="50%"></stop>
            <stop stop-color="#154B8D" offset="100%"></stop>
        </linearGradient>
        <linearGradient x1="-7.24106057%" y1="64.5224163%" x2="352.042957%" y2="16.2337874%" id="linearGradient-16">
            <stop stop-color="#97D6EE" offset="0%"></stop>
            <stop stop-color="#55C1EA" offset="70.3%"></stop>
            <stop stop-color="#55C1EA" offset="100%"></stop>
        </linearGradient>
        <linearGradient x1="47.6468993%" y1="32.5460685%" x2="395.568382%" y2="95.2057303%" id="linearGradient-17">
            <stop stop-color="#7ACCEC" offset="0%"></stop>
            <stop stop-color="#3FB7ED" offset="100%"></stop>
        </linearGradient>
        <linearGradient x1="49.2257486%" y1="6.22341877%" x2="49.2257486%" y2="127.868334%" id="linearGradient-18">
            <stop stop-color="#1DA7E7" offset="0%"></stop>
            <stop stop-color="#37ABE7" stop-opacity="0" offset="100%"></stop>
        </linearGradient>
    </defs>
    <g id="Page-1" stroke="none" stroke-width="1" fill="none" fill-rule="evenodd">
        <g id="homepage_spinx" transform="translate(-945.000000, -5622.000000)" fill-rule="nonzero">
            <g id="6" transform="translate(-18.000000, 5463.000000)">
                <g id="microsoft-dot-net" transform="translate(963.000000, 157.000000)">
                    <path d="M51.7158537,14.1512195 C57.0804878,30.5560976 59.1109756,59.8207317 74.7987805,59.8207317 C75.9926829,59.8207317 77.2,59.704878 78.4109756,59.4731707 C64.1512195,56.147561 62.4609756,27.202439 53.7597561,12.2121951 C53.0768293,12.8329268 52.4,13.4792683 51.7158537,14.1512195" id="Path" fill="url(#linearGradient-1)"></path>
                    <path d="M53.7597561,12.2121951 C62.4609756,27.202439 64.1512195,56.147561 78.4109756,59.4731707 C79.5304878,59.2682927 80.6536585,58.9560976 81.7792683,58.5634146 C68.9792683,52.2914634 65.4414634,24.1829268 55.5597561,10.65 C54.9609756,11.15 54.3597561,11.6707317 53.7597561,12.2121951" id="Path" fill="url(#linearGradient-2)"></path>
                    <path d="M66.297561,3.29756098 C65.1060976,3.29756098 63.8963415,3.41463415 62.6829268,3.64512195 C59.5085366,4.24390244 56.2841463,5.6097561 53.0329268,7.67926829 C53.9207317,8.55609756 54.7670732,9.55853659 55.5609756,10.652439 C58.8670732,7.9097561 62.1512195,5.88292683 65.4231707,4.66341463 C66.6512195,4.20853659 67.8756098,3.86707317 69.102439,3.64146341 C68.2170732,3.41463415 67.2829268,3.29756098 66.297561,3.29756098" id="Path" fill="#14559A"></path>
                    <path d="M91.7695122,52.7829268 C93.0792683,51.7414634 94.3914634,50.5902439 95.7060976,49.3329268 C90.254878,33.004878 88.3036585,3.32195122 72.5073171,3.32195122 C71.3780488,3.32195122 70.2378049,3.42682927 69.102439,3.63780488 C83.4902439,7.21585366 85.3329268,38.5219512 91.7695122,52.7829268" id="Path" fill="url(#linearGradient-3)"></path>
                    <path d="M69.102439,3.63902439 C68.2170732,3.41341463 67.2829268,3.29634146 66.2963415,3.29634146 L72.5085366,3.3195122 C71.3780488,3.3195122 70.2390244,3.42439024 69.102439,3.63902439" id="Path" fill="#3092C4"></path>
                    <path d="M91.495122,56.2512195 C90.8780488,55.6621951 90.2914634,55.0158537 89.7146341,54.3256098 C87.0573171,56.2073171 84.4085366,57.6341463 81.7792683,58.5634146 C82.7146341,59.0207317 83.6963415,59.3597561 84.7378049,59.5707317 C85.545122,59.7365854 86.3804878,59.8207317 87.2585366,59.8207317 C90.2109756,59.8207317 92.5439024,59.4719512 94.5304878,58.5182927 C93.4365854,57.9268293 92.4329268,57.1621951 91.495122,56.2512195" id="Path" fill="#1969BC"></path>
                    <path d="M65.4219512,4.66463415 C78.3109756,11.4060976 79.4304878,41.9329268 89.7146341,54.3268293 C90.4036585,53.8414634 91.0865854,53.3268293 91.7682927,52.7841463 C85.3304878,38.5219512 83.4902439,7.21341463 69.1036585,3.63780488 C67.8756098,3.86707317 66.65,4.20731707 65.4219512,4.66463415" id="Path" fill="url(#linearGradient-4)"></path>
                    <path d="M55.5597561,10.6512195 C65.4414634,24.1841463 68.9792683,52.2926829 81.7792683,58.5646341 C84.4109756,57.6353659 87.0573171,56.2085366 89.7146341,54.3268293 C79.4304878,41.9329268 78.3097561,11.4060976 65.4219512,4.66463415 C62.15,5.88170732 58.8658537,7.90853659 55.5597561,10.6512195" id="Path" fill="url(#linearGradient-5)"></path>
                    <path d="M45.3926829,13.7560976 C43.8426829,17.2585366 42.2609756,21.8609756 40.3487805,27.8707317 C44.1512195,22.5109756 47.9439024,17.8939024 51.7146341,14.1512195 C51.1939024,12.554878 50.6378049,11.0817073 50.0365854,9.77073171 C48.495122,10.9512195 46.9414634,12.2792683 45.3926829,13.7560976" id="Path" fill="url(#linearGradient-6)"></path>
                    <path d="M51.4109756,8.76097561 C50.9560976,9.08658537 50.497561,9.4195122 50.0390244,9.77073171 C50.6402439,11.0829268 51.1963415,12.554878 51.7158537,14.1512195 C52.4012195,13.4817073 53.0804878,12.8317073 53.7609756,12.2121951 C53.0280488,10.9585366 52.252439,9.8 51.4109756,8.76097561" id="Path" fill="#2B74B1"></path>
                    <path d="M53.0317073,7.67804878 C52.4914634,8.02073171 51.9536585,8.38170732 51.4085366,8.7597561 C52.2512195,9.79878049 53.0268293,10.9573171 53.7597561,12.2146341 C54.3609756,11.6707317 54.9609756,11.147561 55.5597561,10.6512195 C54.7658537,9.55731707 53.9207317,8.55487805 53.0317073,7.67804878" id="Path" fill="#125A9E"></path>
                    <path d="M140.941463,2.04878049 C133.652439,30.1585366 118.428049,52.7378049 105.664634,58.4292683 L105.639024,58.4292683 L104.95,58.7231707 L104.867073,58.7560976 L104.670732,58.8317073 L104.582927,58.8682927 L104.264634,58.9804878 L104.132927,59.0268293 L103.97439,59.0792683 L103.820732,59.1329268 L103.684146,59.1780488 L103.412195,59.2609756 L103.296341,59.2914634 L103.112195,59.3414634 L102.987805,59.3756098 L102.787805,59.4268293 L102.542683,59.4804878 C103.119512,59.6939024 103.720732,59.8012195 104.368293,59.8012195 C116.470732,59.8012195 128.67561,38.1109756 148.867073,2.04146341 L140.939024,2.04146341 L140.941463,2.04878049 L140.941463,2.04878049 Z" id="Path" fill="url(#linearGradient-7)"></path>
                    <path d="M37.7207317,4.43902439 L37.7426829,4.41829268 L37.7707317,4.4 L37.7865854,4.4 L37.9829268,4.32439024 L38.0219512,4.30487805 L38.0719512,4.28292683 L38.2829268,4.20731707 L38.2939024,4.20731707 L38.7585366,4.04512195 L38.8268293,4.02682927 L39.0268293,3.96707317 L39.1182927,3.93780488 L39.3182927,3.87804878 L39.395122,3.85853659 L40.0597561,3.68536585 L40.1512195,3.66463415 L40.345122,3.62682927 L40.4414634,3.59756098 L40.6365854,3.56097561 L40.6817073,3.56097561 L41.0865854,3.48536585 L41.1670732,3.48536585 L41.3536585,3.45365854 L41.4585366,3.43414634 L41.6365854,3.40731707 L41.7365854,3.38902439 L42.1719512,3.35 C41.752439,3.31097561 41.3219512,3.28414634 40.8829268,3.28414634 C27.252439,3.28414634 8.47317073,28.5743902 0.0134146341,61.3256098 L1.64390244,61.3256098 C4.35121951,56.497561 6.78292683,51.9292683 9.00609756,47.6426829 C14.9317073,24.445122 26.9987805,8.62317073 37.7182927,4.43170732" id="Path" fill="url(#linearGradient-8)"></path>
                    <path d="M45.3926829,13.7560976 C46.9426829,12.2792683 48.495122,10.9512195 50.0365854,9.77073171 C49.6853659,9 49.3207317,8.28658537 48.9304878,7.63292683 C47.6841463,9.14634146 46.545122,11.1414634 45.3926829,13.7560976 M46.5134146,4.6304878 C47.4036585,5.37560976 48.2,6.40365854 48.9304878,7.63292683 C49.1597561,7.35121951 49.3926829,7.09146341 49.6353659,6.84512195 C48.6219512,5.90121951 47.5280488,5.12682927 46.3414634,4.54146341 L46.4865854,4.61097561 L46.5134146,4.6304878" id="Shape" fill="#0D82CA"></path>
                    <path d="M9.0097561,47.6487805 C21.4378049,23.697561 27.3268293,8.5402439 37.7219512,4.43780488 C27.0036585,8.63170732 14.9341463,24.452439 9.0097561,47.6487805" id="Path" fill="url(#linearGradient-9)"></path>
                    <path d="M49.6341463,6.84634146 C49.3914634,7.09390244 49.1621951,7.35243902 48.9292683,7.63414634 C49.3195122,8.28780488 49.6829268,8.99878049 50.0378049,9.77195122 C50.4963415,9.4195122 50.954878,9.08780488 51.4097561,8.76097561 C50.847561,8.06707317 50.2536585,7.42317073 49.6341463,6.84634146" id="Path" fill="#127BCA"></path>
                    <path d="M14.652439,61.2231707 L14.4268293,61.25 L14.3841463,61.25 L14.1926829,61.2695122 L14.1609756,61.2695122 L13.704878,61.3 L13.6573171,61.3 C26.2353659,60.947561 31.9865854,54.65 34.8402439,45.5146341 C37.0073171,38.5902439 38.7890244,32.7560976 40.35,27.8609756 C35.0817073,35.2768293 29.7878049,44.1170732 24.4670732,54.0207317 C21.9012195,58.7939024 17.9987805,60.7878049 14.652439,61.2134146" id="Path" fill="url(#linearGradient-10)"></path>
                    <path d="M14.652439,61.2182927 C17.9987805,60.7914634 21.9012195,58.8 24.4670732,54.0243902 C29.7878049,44.1243902 35.0841463,35.2817073 40.347561,27.8646341 C42.2634146,21.8536585 43.8426829,17.2536585 45.3939024,13.7512195 C34.9012195,23.7378049 24.3695122,40.3439024 14.652439,61.2134146" id="Path" fill="url(#linearGradient-11)"></path>
                    <path d="M9.0097561,47.6487805 C6.78536585,51.9353659 4.35365854,56.502439 1.64512195,61.3317073 L6.38780488,61.3317073 C7.01463415,56.5365854 7.90487805,51.9646341 9.00853659,47.6512195" id="Path" fill="#05A1E6"></path>
                    <path d="M41.7378049,3.40365854 L41.6365854,3.42317073 L41.4585366,3.44878049 L41.354878,3.46707317 L41.1682927,3.5 L41.0878049,3.5195122 L40.6829268,3.5902439 L40.6378049,3.5902439 L40.4402439,3.62926829 L40.3414634,3.65487805 L40.15,3.69268293 L40.0597561,3.71463415 L39.3939024,3.88780488 L39.3170732,3.91097561 L39.1158537,3.97073171 L39.0243902,3.99390244 L38.8256098,4.05243902 L38.752439,4.07195122 L38.2902439,4.23414634 L38.0804878,4.30731707 L37.9926829,4.34390244 L37.797561,4.41707317 L37.7329268,4.44878049 C27.3390244,8.55121951 21.45,23.7085366 9.02195122,47.6585366 C7.91829268,51.9731707 7.02439024,56.545122 6.4,61.3390244 L7.06585366,61.3390244 L11.6256098,61.3195122 L13.7158537,61.3195122 L14.1719512,61.2890244 L14.2012195,61.2890244 L14.3926829,61.2695122 L14.4390244,61.2695122 L14.6646341,61.2426829 C24.3804878,40.3743902 34.9134146,23.7682927 45.4060976,13.7817073 C46.5585366,11.1670732 47.6963415,9.17073171 48.9402439,7.6597561 C48.2121951,6.4304878 47.4158537,5.4 46.5256098,4.65365854 L46.5,4.63414634 L46.3512195,4.56219512 L46.204878,4.48780488 L46.0621951,4.41829268 L45.8939024,4.34756098 L45.7621951,4.2902439 L45.4865854,4.17560976 L45.3695122,4.1304878 L45.1646341,4.04878049 L45.0536585,4.01219512 L44.7682927,3.91463415 L44.745122,3.91463415 L44.4146341,3.82073171 L44.3402439,3.79756098 L44.0621951,3.7195122 L43.997561,3.70121951 C43.7719512,3.6402439 43.5402439,3.59268293 43.3060976,3.55 L43.2341463,3.5304878 L42.9341463,3.48170732 L42.8756098,3.46341463 L42.5207317,3.41707317 L42.4585366,3.41707317 L42.1853659,3.38658537 L41.75,3.42682927" id="Path" fill="url(#linearGradient-12)"></path>
                    <path d="M112.470732,17.6109756 C110.079268,25.2707317 108.142683,31.5902439 106.457317,36.7902439 C113.019512,27.7609756 119.481707,16.402439 125.637805,3.29390244 C118.456098,5.54878049 114.626829,10.7097561 112.470732,17.6109756" id="Path" fill="url(#linearGradient-13)"></path>
                    <path d="M106.664634,57.9512195 C106.330488,58.1219512 105.993902,58.2829268 105.664634,58.4304878 C118.428049,52.7378049 133.653659,30.1585366 140.941463,2.04878049 L139.464634,2.04878049 C122.717073,31.9634146 117.331707,51.9902439 106.664634,57.9512195" id="Path" fill="url(#linearGradient-14)"></path>
                    <path d="M98.3304878,55.4378049 C101.107317,52.0487805 103.369512,46.2865854 106.458537,36.7890244 C102.896341,41.6817073 99.3109756,45.8890244 95.7219512,49.3182927 L95.7036585,49.3487805 C96.4865854,51.6939024 97.345122,53.7658537 98.3243902,55.4365854" id="Path" fill="#079AE1"></path>
                    <path d="M98.3304878,55.4378049 C97.3853659,56.5914634 96.3841463,57.4695122 95.2707317,58.1207317 C95.0268293,58.2634146 94.7804878,58.397561 94.5292683,58.5182927 C95.704878,59.152439 96.9878049,59.5768293 98.4231707,59.7463415 L99.0597561,59.802439 L99.097561,59.802439 L99.4036585,59.8219512 L100.442683,59.8219512 L100.559756,59.802439 L100.789024,59.7829268 L100.9,59.7829268 L101.15,59.7560976 L101.168293,59.7560976 L101.245122,59.7378049 L101.510976,59.6963415 L101.589024,59.6963415 L101.887805,59.6463415 L101.935366,59.6463415 L102.531707,59.5195122 C100.884146,58.9182927 99.5060976,57.495122 98.3182927,55.4707317" id="Path" fill="#1969BC"></path>
                    <path d="M74.7987805,59.8207317 C75.9926829,59.8207317 77.1987805,59.7036585 78.4097561,59.4707317 C79.5304878,59.2670732 80.6536585,58.9560976 81.7780488,58.5634146 C82.7134146,59.0207317 83.6963415,59.3597561 84.7353659,59.5719512 C85.5426829,59.7365854 86.3792683,59.8207317 87.2585366,59.8207317 L74.7987805,59.8207317 Z M87.2585366,59.8207317 C90.2085366,59.8207317 92.5439024,59.4707317 94.5292683,58.5182927 C95.704878,59.1536585 96.9878049,59.5768293 98.4231707,59.7463415 L99.0597561,59.8012195 L99.097561,59.8012195 L99.4036585,59.8207317 L99.7707317,59.8207317 L87.2585366,59.8207317 L87.2585366,59.8207317 Z" id="Shape" fill="#1E5CB3"></path>
                    <path d="M99.7707317,59.8207317 L100.452439,59.8207317 L100.569512,59.8012195 L100.80122,59.7817073 L100.914634,59.7817073 L101.162195,59.754878 L101.182927,59.754878 L101.258537,59.7365854 L101.52439,59.6963415 L101.604878,59.6780488 L101.904878,59.6292683 L101.952439,59.6292683 L102.54878,59.502439 C103.12561,59.7146341 103.726829,59.8231707 104.37561,59.8231707 L99.7743902,59.8426829 L99.7707317,59.8207317 L99.7707317,59.8207317 Z" id="Path" fill="#1D60B5"></path>
                    <path d="M95.7097561,49.35 L95.7097561,49.3304878 C94.395122,50.5878049 93.0841463,51.7402439 91.7731707,52.7817073 C91.0890244,53.3243902 90.4073171,53.8390244 89.7170732,54.3243902 C90.2939024,55.0134146 90.8804878,55.6609756 91.4987805,56.25 C92.4378049,57.1597561 93.4390244,57.9256098 94.5329268,58.5170732 C94.7829268,58.395122 95.0304878,58.2609756 95.2731707,58.1195122 C96.3890244,57.4682927 97.3878049,56.5902439 98.3341463,55.4365854 C97.354878,53.7658537 96.4963415,51.6939024 95.7146341,49.3487805" id="Path" fill="#175FAB"></path>
                    <path d="M134.786585,2.04878049 L127.352439,2.04878049 L126.17439,2.10609756 L125.62561,3.27926829 C119.471951,16.3878049 113.008537,27.7463415 106.446341,36.7768293 C103.360976,46.2719512 101.096341,52.0341463 98.3195122,55.4243902 C99.5060976,57.45 100.887805,58.8743902 102.529268,59.4780488 L102.658537,59.45 L102.685366,59.45 L102.77561,59.4292683 L102.981707,59.3780488 L103.103659,59.3426829 L103.287805,59.2939024 L103.402439,59.2621951 L103.67561,59.1792683 L103.812195,59.1341463 L103.965854,59.0780488 L104.123171,59.0280488 L104.25122,58.9792683 L104.571951,58.8670732 L104.660976,58.8341463 L104.857317,58.7573171 L104.941463,58.7268293 L105.630488,58.4329268 L105.653659,58.4329268 C105.984146,58.2865854 106.319512,58.1243902 106.652439,57.9536585 C117.323171,51.9926829 122.708537,31.9658537 139.454878,2.05121951 L134.778049,2.05121951 L134.786585,2.04878049 L134.786585,2.04878049 Z" id="Path" fill="url(#linearGradient-15)"></path>
                    <path d="M42.1743902,3.36341463 L42.2512195,3.38292683 L42.445122,3.40365854 L42.5109756,3.40365854 L42.8646341,3.44878049 L42.9256098,3.46829268 L43.2243902,3.51829268 L43.2987805,3.53658537 L43.9890244,3.68902439 L44.0512195,3.70853659 L44.3280488,3.78658537 L44.404878,3.8097561 L44.7329268,3.90365854 L44.7573171,3.92317073 L45.045122,4.02195122 L45.154878,4.05731707 L45.3609756,4.14146341 L45.4780488,4.18292683 L45.7512195,4.29756098 L45.8853659,4.35487805 L46.05,4.42682927 L46.1963415,4.49512195 L46.3414634,4.57073171 C47.5292683,5.15487805 48.6231707,5.93292683 49.6365854,6.87560976 C50.0085366,6.48292683 50.3987805,6.13170732 50.804878,5.81463415 C48.5914634,4.24390244 46.0804878,3.34878049 43.1878049,3.34878049 C42.852439,3.34878049 42.5182927,3.36829268 42.1768293,3.39390244" id="Path" fill="#7DCBEC"></path>
                    <path d="M49.6341463,6.84634146 C50.2536585,7.42317073 50.847561,8.06707317 51.4097561,8.76097561 C51.952439,8.38292683 52.4914634,8.0195122 53.0329268,7.67926829 C52.3243902,6.9695122 51.5780488,6.33292683 50.8,5.78536585 C50.395122,6.09878049 50.0060976,6.45365854 49.6341463,6.84634146" id="Path" fill="#5EC5ED"></path>
                    <g id="Group" transform="translate(47.965854, 6.226829) scale(-1, 1) rotate(-180.000000) translate(-47.965854, -6.226829) translate(35.653659, 0.070732)" fill="url(#linearGradient-16)">
                        <path d="M6.19919024,8.93865366 L7.20879024,8.98174634 C10.1021561,8.98174634 12.6138439,8.0891122 14.8238829,6.51930732 C17.1632,8.35998049 19.9826927,9.00637073 23.9102829,9.00637073 L4.91256585,9.00637073 L6.19919024,8.93865366" id="Path"></path>
                    </g>
                    <g id="Group" transform="translate(57.200000, 6.226829) scale(-1, 1) rotate(-180.000000) translate(-57.200000, -6.226829) translate(47.965854, 0.070732)" fill="url(#linearGradient-17)">
                        <path d="M11.5980878,9.00637073 C7.67665366,9.00637073 4.85100488,8.35998049 2.5116878,6.51930732 C3.2873561,5.97141463 4.0322439,5.33733659 4.74019512,4.62938537 C7.99061463,6.69783415 11.2164098,8.0644878 14.3929561,8.66778537 C15.6057073,8.89556098 16.8123024,9.01252683 18.0065854,9.01252683 L11.5980878,9.01252683 L11.5980878,9.00637073 Z" id="Path"></path>
                    </g>
                    <path d="M106.457317,36.795122 C108.145122,31.5914634 110.076829,25.2743902 112.473171,17.6121951 C114.632927,10.7085366 118.454878,5.54634146 125.634146,3.29390244 L126.187805,2.12073171 C114.484146,2.82195122 109.014634,8.77560976 106.262195,17.5926829 C101.44878,32.9853659 98.5317073,42.9621951 95.7243902,49.3207317 C99.3097561,45.8914634 102.895122,41.6829268 106.457317,36.795122" id="Path" fill="url(#linearGradient-18)"></path>
                </g>
            </g>
        </g>
    </g>
</svg>