<?xml version="1.0" encoding="UTF-8"?>
<svg width="95px" height="95px" viewBox="0 0 95 95" version="1.1" xmlns="http://www.w3.org/2000/svg" xmlns:xlink="http://www.w3.org/1999/xlink">
    <!-- Generator: sketchtool 60 (101010) - https://sketch.com -->
    <title>88B67B18-C382-4769-9EFD-F1164404E3BC</title>
    <desc>Created with sketchtool.</desc>
    <g id="Page-1" stroke="none" stroke-width="1" fill="none" fill-rule="evenodd">
        <g id="homepage_spinx" transform="translate(-773.000000, -5603.000000)" fill="#F05A22" fill-rule="nonzero">
            <g id="6" transform="translate(-18.000000, 5463.000000)">
                <g id="icon-kentico" transform="translate(791.000000, 140.000000)">
                    <path d="M54.4736967,70.4752781 L54.4736967,94.4347814 C54.4736967,94.4347814 40.49603,97.8459735 40.49603,87.6803444 L40.4969683,75.9800353 C40.4974374,74.0585047 40.4981411,72.2215585 40.4991967,70.5746821 C40.49603,62.0227947 54.4736967,61.8246159 54.4736967,70.4752781 Z M36.3058967,68.8071788 C29.4240967,75.639 19.25403,85.7473775 19.25403,85.7473775 C19.25403,85.7473775 6.9407633,78.3392649 14.1708967,71.1532384 C18.10073,67.2532053 22.8323633,62.5453576 26.3473633,59.0624437 C32.4311633,53.010755 42.4612633,62.6862848 36.3058967,68.8071788 Z M68.629963,58.9222086 C75.511763,65.750255 85.67803,75.856745 85.67803,75.856745 C85.67803,75.856745 78.225597,88.0928709 70.99483,80.9030695 C67.06563,77.0061821 62.330197,72.2989636 58.8189967,68.8110166 C52.7313967,62.7624735 62.47523,52.8013146 68.629963,58.9222086 Z M47.4891067,37.7102815 C53.0941067,37.7102815 57.6439733,42.2331623 57.6439733,47.8029305 C57.6439733,53.3783609 53.0941067,57.8943212 47.4891067,57.898096 C41.87524,57.898096 37.3291733,53.3783609 37.3291733,47.8029305 C37.3291733,42.2331623 41.87524,37.7102815 47.4891067,37.7102815 Z M24.5632633,40.8636523 C33.1765967,40.8636523 33.37673,54.7443477 24.6677633,54.7443477 L0.55613,54.7443477 C0.55613,54.7443477 -2.8841367,40.8636523 7.34863,40.8636523 L24.5632633,40.8636523 Z M94.428353,40.8633374 C94.428353,40.8633374 97.86862,54.7440328 87.63522,54.7440328 L70.412986,54.7440328 C61.8009197,54.7440328 61.6071197,40.8633374 70.31292,40.8633374 L94.428353,40.8633374 Z M23.9925033,14.7058113 C27.91157,18.6096192 32.65017,23.3092881 36.15757,26.8016391 C42.2458033,32.8482947 32.50957,42.8037914 26.3472367,36.6866722 C19.4730367,29.8542219 9.29537,19.7546523 9.29537,19.7546523 C9.29537,19.7546523 16.7522367,7.51600993 23.9925033,14.7058113 Z M75.72621,9.86615894 C75.72621,9.86615894 88.043277,17.2692384 80.813143,24.4552649 C76.883943,28.3590728 72.145343,33.0618874 68.63731,36.5548675 C62.545277,42.5977483 52.5164433,32.9228477 58.6787767,26.8044702 C65.552343,19.972649 75.72621,9.86615894 75.72621,9.86615894 Z M54.47376,7.92520225 L54.47376,25.0258314 C54.47376,33.5852685 40.4922933,33.7884804 40.49926,25.1290102 L40.4990518,22.004112 C40.4978932,12.6679234 40.4922933,1.18083139 40.4922933,1.18083139 C40.4922933,1.18083139 54.47376,-2.23350636 54.47376,7.92520225 Z"></path>
                </g>
            </g>
        </g>
    </g>
</svg>